<svg width="11" height="11" viewBox="0 0 11 11" fill="none" xmlns="http://www.w3.org/2000/svg">
<path d="M6.3585 5.19814L0.79555 0.124392C0.613287 -0.0417463 0.318198 -0.041467 0.13624 0.125251C-0.045577 0.291948 -0.0451072 0.561984 0.13718 0.728251L5.369 5.50002L0.136992 10.2718C-0.0452717 10.4381 -0.0457416 10.7079 0.136052 10.8746C0.227266 10.9582 0.346763 11 0.46626 11C0.585451 11 0.704478 10.9585 0.795527 10.8755L6.3585 5.80187C6.44628 5.722 6.49554 5.61329 6.49554 5.50002C6.49554 5.38676 6.44614 5.27817 6.3585 5.19814Z" fill="#8E4955"/>
<path d="M10.3585 5.19814L4.79555 0.124392C4.61329 -0.0417463 4.3182 -0.041467 4.13624 0.125251C3.95442 0.291948 3.95489 0.561984 4.13718 0.728251L9.369 5.50002L4.13699 10.2718C3.95473 10.4381 3.95426 10.7079 4.13605 10.8746C4.22727 10.9582 4.34676 11 4.46626 11C4.58545 11 4.70448 10.9585 4.79553 10.8755L10.3585 5.80187C10.4463 5.722 10.4955 5.61329 10.4955 5.50002C10.4955 5.38676 10.4461 5.27817 10.3585 5.19814Z" fill="#8E4955"/>
</svg>
