<svg width="41" height="41" viewBox="0 0 41 41" fill="none" xmlns="http://www.w3.org/2000/svg">
<g clip-path="url(#clip0)">
<path d="M40.6526 36.0423L36.7589 33.1644L28.7651 17.1605L40.6526 8.37413C41.0329 8.09386 41.113 7.55919 40.8327 7.17963C40.5491 6.80006 40.0153 6.72255 39.6382 7.00114L27.9908 15.6102L21.264 2.14313C20.9737 1.56362 20.0262 1.56362 19.7359 2.14313L13.0092 15.6102L1.36171 7.00114C0.986309 6.72255 0.450837 6.80014 0.167206 7.17963C-0.113062 7.55919 -0.0329858 8.09386 0.347378 8.37413L12.2348 17.1605L4.24102 33.1644L0.347378 36.0423C-0.0329858 36.3225 -0.113062 36.8572 0.167206 37.2368C0.335687 37.4628 0.594254 37.5829 0.854503 37.5829C1.03131 37.5829 1.20988 37.5287 1.36163 37.4153L2.56013 36.5294L1.79869 38.0537C1.66688 38.3184 1.68025 38.6331 1.83536 38.8853C1.99215 39.1374 2.26745 39.2911 2.5627 39.2911H38.437C38.7323 39.2911 39.0075 39.1375 39.1643 38.8853C39.3195 38.6331 39.3328 38.3183 39.201 38.0537L38.4396 36.5294L39.6381 37.4153C39.7899 37.5287 39.9684 37.5829 40.1452 37.5829C40.4054 37.5829 40.664 37.4628 40.8325 37.2368C41.113 36.8572 41.0329 36.3225 40.6526 36.0423ZM33.7252 30.922L21.9359 22.2082L27.3625 18.1972L33.7252 30.922ZM20.5 4.47288L26.5875 16.6473L20.5 21.1468L14.4125 16.6473L20.5 4.47288ZM13.6375 18.1973L19.0641 22.2082L7.27472 30.922L13.6375 18.1973ZM3.94418 37.5829L5.59119 34.2891L20.5 23.2695L35.4088 34.2891L37.0558 37.5829H3.94418Z" fill="#313030"/>
</g>
<defs>
<clipPath id="clip0">
<rect width="41" height="41" fill="white"/>
</clipPath>
</defs>
</svg>
