<svg width="54" height="36" viewBox="0 0 54 36" fill="none" xmlns="http://www.w3.org/2000/svg">
<path d="M53.9901 34.7267L49.8801 3.90561C49.5834 1.67864 47.6663 0 45.4196 0H19.125C18.5031 0 17.9999 0.503192 17.9999 1.12504C17.9999 1.74688 18.5031 2.25007 19.125 2.25007H45.4197C46.5425 2.25007 47.5016 3.08939 47.6499 4.2023L49.1902 15.7501H19.125C8.57925 15.75 0 24.3291 0 34.8749C0 35.4968 0.503191 36 1.12504 36H52.8751C53.1992 36 53.5079 35.8604 53.721 35.6166C53.9351 35.3715 54.033 35.0474 53.9901 34.7267ZM2.28741 33.7499C2.86854 24.9674 10.1986 17.9999 19.125 17.9999H49.4902L51.5896 33.7499H2.28741Z" fill="#313030"/>
<path d="M27 28.1249C28.2426 28.1249 29.2499 27.1176 29.2499 25.875C29.2499 24.6323 28.2426 23.625 27 23.625C25.7573 23.625 24.75 24.6323 24.75 25.875C24.75 27.1176 25.7573 28.1249 27 28.1249Z" fill="#313030"/>
</svg>
