<svg width="56" height="38" viewBox="0 0 56 38" fill="none" xmlns="http://www.w3.org/2000/svg">
<path d="M54.3499 12.1049L53.8571 12.3289L55.9768 1.73142C56.1044 1.09914 55.6943 0.485008 55.0608 0.358572C54.4615 0.22645 53.8167 0.638895 53.689 1.27348L52.0849 9.29359C51.4055 8.94458 50.8684 8.38645 50.2528 7.71468C49.1454 6.506 47.7669 5.00212 45.1146 5.00212C42.4623 5.00212 41.0861 6.506 39.9787 7.71468C38.9806 8.80611 38.19 9.66841 36.5675 9.66841C34.9429 9.66841 34.1544 8.80611 33.1542 7.71468C32.0468 6.506 30.6683 5.00212 28.016 5.00212C25.366 5.00212 23.9875 6.506 22.8822 7.71348C21.8796 8.80611 21.089 9.66841 19.4643 9.66841C17.8374 9.66841 17.0445 8.80611 16.0418 7.71348C14.9344 6.506 13.5536 5.00212 10.899 5.00212C8.24441 5.00212 6.86587 6.5049 5.75847 7.71348C5.13964 8.3871 4.59999 8.94753 3.91564 9.29654L2.31103 1.27337C2.18339 0.638786 1.53853 0.225247 0.939274 0.358463C0.305786 0.484898 -0.104363 1.09903 0.0232752 1.73131L2.14292 12.3288L1.6502 12.1048C1.06462 11.8405 0.374144 12.0979 0.105305 12.6836C-0.161347 13.2704 0.0984145 13.962 0.684107 14.2285L2.70674 15.1479L6.45266 33.8762L3.01736 35.4377C2.43178 35.7043 2.17202 36.3958 2.43856 36.9826C2.63456 37.4121 3.05838 37.6662 3.50035 37.6662C3.66212 37.6662 3.82618 37.6331 3.98345 37.5614L7.45988 35.9812C8.32557 37.0158 9.61868 37.6662 11.0357 37.6662H44.9641C46.3812 37.6662 47.6743 37.0157 48.54 35.9812L52.0164 37.5614C52.1737 37.6331 52.3377 37.6662 52.4995 37.6662C52.9416 37.6662 53.3654 37.4121 53.5613 36.9826C53.8279 36.3958 53.5682 35.7042 52.9825 35.4377L49.5472 33.8762L53.2931 15.1479L55.3157 14.2285C55.9013 13.9619 56.1611 13.2704 55.8945 12.6836C55.6282 12.0981 54.9377 11.8406 54.3499 12.1049ZM5.32415 16.3378L25.181 25.3636L8.63378 32.8849L5.32415 16.3378ZM44.9643 35.3331H11.0358C10.571 35.3331 10.1473 35.1696 9.77793 34.9277L28 26.6449L46.2221 34.9277C45.8528 35.1697 45.4292 35.3331 44.9643 35.3331ZM47.3664 32.8849L30.8191 25.3636L50.676 16.3378L47.3664 32.8849ZM51.2398 13.5185L28 24.082L4.76033 13.5185L4.38256 11.6296C5.75913 11.1213 6.67042 10.1691 7.47672 9.2902C8.47934 8.19756 9.2723 7.33515 10.8992 7.33515C12.5284 7.33515 13.3214 8.19876 14.324 9.29129C15.4314 10.4988 16.8123 12.0014 19.4646 12.0014C22.1169 12.0014 23.4954 10.4977 24.6028 9.2891C25.6031 8.19767 26.3915 7.33515 28.0161 7.33515C29.6407 7.33515 30.4314 8.19756 31.434 9.2902C32.5391 10.4977 33.9177 12.0014 36.5678 12.0014C39.2178 12.0014 40.5941 10.4977 41.7015 9.2902C42.7018 8.19756 43.4902 7.33515 45.1148 7.33515C46.7395 7.33515 47.5301 8.19756 48.5327 9.2902C49.3365 10.1691 50.246 11.1207 51.6179 11.6289L51.2398 13.5185Z" fill="#313030"/>
</svg>
