<svg width="31" height="30" viewBox="0 0 31 30" fill="none" xmlns="http://www.w3.org/2000/svg">
<g clip-path="url(#clip0)">
<path d="M30.7716 8.82008C30.7015 7.22607 30.4444 6.1302 30.076 5.18061C29.696 4.17264 29.1113 3.27022 28.3453 2.52002C27.5969 1.75816 26.6907 1.16615 25.6968 0.79117C24.7439 0.421912 23.6564 0.16414 22.0662 0.0938599C20.4641 0.0176273 19.9554 0 15.8921 0C11.8287 0 11.3201 0.0176273 9.72392 0.0879078C8.13369 0.158188 7.04043 0.416188 6.09333 0.785218C5.08753 1.16615 4.18725 1.7522 3.43884 2.52002C2.67878 3.27022 2.08841 4.1786 1.71409 5.17488C1.34571 6.1302 1.08855 7.22011 1.01844 8.81413C0.94239 10.42 0.924805 10.9299 0.924805 15.0029C0.924805 19.076 0.94239 19.5858 1.0125 21.1858C1.08262 22.7798 1.34 23.8757 1.70838 24.8253C2.08841 25.8332 2.67878 26.7356 3.43884 27.4858C4.18725 28.2477 5.09347 28.8397 6.08739 29.2147C7.04043 29.584 8.12776 29.8417 9.71821 29.912C11.3141 29.9825 11.823 29.9999 15.8864 29.9999C19.9497 29.9999 20.4583 29.9825 22.0545 29.912C23.6447 29.8417 24.738 29.584 25.6851 29.2147C27.6965 28.4352 29.2867 26.8412 30.0643 24.8253C30.4325 23.8699 30.6899 22.7798 30.76 21.1858C30.8301 19.5858 30.8477 19.076 30.8477 15.0029C30.8477 10.9299 30.8417 10.42 30.7716 8.82008ZM28.0765 21.0686C28.0121 22.5337 27.7666 23.3249 27.5619 23.8523C27.0591 25.1593 26.0243 26.1965 24.7204 26.7006C24.1942 26.9057 23.3992 27.1518 21.9433 27.2162C20.3647 27.2867 19.8913 27.3041 15.898 27.3041C11.9047 27.3041 11.4254 27.2867 9.8525 27.2162C8.39085 27.1518 7.60156 26.9057 7.07537 26.7006C6.42653 26.4602 5.83594 26.0793 5.35656 25.5812C4.8596 25.0947 4.47958 24.5086 4.23977 23.8583C4.03514 23.3308 3.78963 22.5337 3.72546 21.0745C3.65512 19.4922 3.63776 19.0174 3.63776 15.0146C3.63776 11.0118 3.65512 10.5313 3.72546 8.95492C3.78963 7.48979 4.03514 6.69862 4.23977 6.17117C4.47958 5.52056 4.8596 4.92879 5.3625 4.44804C5.84759 3.9499 6.43224 3.56896 7.08131 3.32882C7.6075 3.1237 8.40273 2.87761 9.85844 2.81305C11.437 2.74277 11.9107 2.72514 15.9037 2.72514C19.9029 2.72514 20.3764 2.74277 21.9492 2.81305C23.4109 2.87761 24.2002 3.1237 24.7264 3.32882C25.3752 3.56896 25.9658 3.9499 26.4452 4.44804C26.9421 4.93451 27.3221 5.52056 27.5619 6.17117C27.7666 6.69862 28.0121 7.49551 28.0765 8.95492C28.1466 10.5373 28.1642 11.0118 28.1642 15.0146C28.1642 19.0174 28.1466 19.4862 28.0765 21.0686Z" fill="white"/>
<path d="M15.8914 7.2959C11.6469 7.2959 8.20312 10.7477 8.20312 15.0025C8.20312 19.2573 11.6469 22.7091 15.8914 22.7091C20.1361 22.7091 23.5797 19.2573 23.5797 15.0025C23.5797 10.7477 20.1361 7.2959 15.8914 7.2959ZM15.8914 20.0016C13.1378 20.0016 10.9042 17.7629 10.9042 15.0025C10.9042 12.2421 13.1378 10.0034 15.8914 10.0034C18.6452 10.0034 20.8786 12.2421 20.8786 15.0025C20.8786 17.7629 18.6452 20.0016 15.8914 20.0016Z" fill="white"/>
<path d="M25.6788 6.99152C25.6788 7.98506 24.8752 8.79065 23.8837 8.79065C22.8926 8.79065 22.0889 7.98506 22.0889 6.99152C22.0889 5.99775 22.8926 5.19238 23.8837 5.19238C24.8752 5.19238 25.6788 5.99775 25.6788 6.99152Z" fill="white"/>
</g>
<defs>
<clipPath id="clip0">
<rect width="29.9287" height="30" fill="white" transform="translate(0.871582)"/>
</clipPath>
</defs>
</svg>
