<svg width="31" height="30" viewBox="0 0 31 30" fill="none" xmlns="http://www.w3.org/2000/svg">
<path d="M28.621 7.52271C26.9129 7.52271 25.337 6.95552 24.0714 5.99868C22.62 4.90181 21.5772 3.29282 21.2089 1.43833C21.1177 0.980127 21.0686 0.507275 21.064 0.0227051H16.1847V13.3868L16.1789 20.7069C16.1789 22.6639 14.9075 24.3233 13.1451 24.9069C12.6336 25.0762 12.0812 25.1565 11.506 25.1249C10.7719 25.0844 10.0838 24.8624 9.48585 24.5038C8.2133 23.7409 7.35051 22.3569 7.32713 20.7737C7.2903 18.2993 9.28594 16.2819 11.7527 16.2819C12.2396 16.2819 12.7073 16.3616 13.1451 16.5063V12.8536V11.5405C12.6833 11.4719 12.2133 11.4362 11.7381 11.4362C9.03809 11.4362 6.51286 12.5612 4.70778 14.5879C3.34345 16.1196 2.52508 18.0737 2.39882 20.1227C2.2334 22.8145 3.21602 25.3733 5.12164 27.2612C5.40163 27.5383 5.69566 27.7956 6.00313 28.0329C7.63694 29.2932 9.63433 29.9764 11.7381 29.9764C12.2133 29.9764 12.6833 29.9413 13.1451 29.8727C15.1104 29.5809 16.9236 28.6791 18.3546 27.2612C20.1129 25.5192 21.0844 23.2065 21.0949 20.745L21.0698 9.81372C21.9086 10.4624 22.8258 10.9991 23.8101 11.4157C25.3411 12.0631 26.9644 12.3913 28.635 12.3907V8.83931V7.52153C28.6362 7.5227 28.6221 7.52271 28.621 7.52271Z" fill="white"/>
</svg>
