<svg width="31" height="30" viewBox="0 0 31 30" fill="none" xmlns="http://www.w3.org/2000/svg">
<g clip-path="url(#clip0)">
<path d="M25.8615 4.35654C23.05 1.54884 19.3098 0.00160218 15.3292 0C11.3575 0 7.61135 1.54587 4.78133 4.35287C1.94628 7.16469 0.383536 10.9014 0.379883 14.8611V14.8656V14.8684C0.380339 17.265 1.0085 19.6827 2.20088 21.8896L0.420755 30L8.60508 28.1339C10.6779 29.1811 12.9908 29.7331 15.3235 29.734H15.3294C19.3004 29.734 23.0466 28.1879 25.877 25.3807C28.7146 22.5666 30.278 18.8347 30.2799 14.8725C30.281 10.9383 28.7121 7.2036 25.8615 4.35654ZM15.3292 27.3926H15.3239C13.2294 27.3917 11.154 26.8645 9.32252 25.8678L8.93549 25.6572L3.49327 26.898L4.67538 21.5128L4.4475 21.1189C3.31449 19.1604 2.71578 16.9984 2.71578 14.8659C2.72012 7.96349 8.37788 2.34146 15.3287 2.34146C18.6867 2.34283 21.8418 3.64769 24.2129 6.01524C26.6198 8.41942 27.9449 11.5647 27.9437 14.8718C27.941 21.7758 22.2821 27.3926 15.3292 27.3926Z" fill="white"/>
<path d="M11.2611 8.31226H10.6058C10.3777 8.31226 10.0073 8.39786 9.69402 8.73958C9.38051 9.08153 8.49707 9.90802 8.49707 11.5889C8.49707 13.2698 9.72256 14.894 9.89336 15.1222C10.0644 15.3501 12.2589 18.9097 15.7347 20.2791C18.6234 21.4171 19.2114 21.1907 19.8382 21.1338C20.4652 21.077 21.8615 20.3075 22.1464 19.5098C22.4314 18.7122 22.4314 18.0283 22.346 17.8855C22.2604 17.7431 22.0323 17.6577 21.6904 17.487C21.3484 17.316 19.6724 16.4756 19.3589 16.3613C19.0454 16.2476 18.8175 16.1906 18.5894 16.5328C18.3613 16.8743 17.6897 17.6644 17.4902 17.8923C17.2908 18.1205 17.0913 18.1491 16.7492 17.9782C16.4072 17.8067 15.3171 17.4396 14.0108 16.276C12.994 15.3703 12.2884 14.2153 12.0888 13.8734C11.8895 13.5317 12.0676 13.3467 12.2391 13.1762C12.3927 13.0233 12.6003 12.8141 12.7713 12.6148C12.9421 12.4152 12.9908 12.2728 13.1049 12.0449C13.2189 11.8169 13.1618 11.6173 13.0764 11.4466C12.9908 11.2756 12.3345 9.58621 12.0304 8.91055H12.0306C11.7744 8.34155 11.5047 8.32233 11.2611 8.31226Z" fill="white"/>
</g>
<defs>
<clipPath id="clip0">
<rect width="29.9287" height="30" fill="white" transform="translate(0.379883)"/>
</clipPath>
</defs>
</svg>
