<svg width="31" height="30" viewBox="0 0 31 30" fill="none" xmlns="http://www.w3.org/2000/svg">
<path d="M28.6168 7.97049C28.2934 6.76559 27.3457 5.81579 26.1439 5.49135C23.9482 4.88916 15.1655 4.88916 15.1655 4.88916C15.1655 4.88916 6.38307 4.88916 4.18743 5.46852C3.00869 5.79262 2.03786 6.76577 1.71453 7.97049C1.13672 10.1712 1.13672 14.7352 1.13672 14.7352C1.13672 14.7352 1.13672 19.3221 1.71453 21.4998C2.0382 22.7045 2.98557 23.6544 4.1876 23.9788C6.40619 24.5812 15.1658 24.5812 15.1658 24.5812C15.1658 24.5812 23.9482 24.5812 26.1439 24.0018C27.3459 23.6775 28.2934 22.7277 28.6171 21.523C29.1947 19.3221 29.1947 14.7583 29.1947 14.7583C29.1947 14.7583 29.2179 10.1712 28.6168 7.97049ZM12.3692 18.9515V10.5188L19.6725 14.7352L12.3692 18.9515Z" fill="white"/>
</svg>
