<svg width="21" height="20" viewBox="0 0 21 20" fill="none" xmlns="http://www.w3.org/2000/svg">
<path d="M19.1805 19.1646L17.9027 5.61135C17.8678 5.24122 17.5421 4.95772 17.1519 4.95772H14.5167V3.8258C14.5167 1.71625 12.7147 0 10.4998 0C8.28499 0 6.48323 1.71625 6.48323 3.8258V4.95772H3.8462C3.45606 4.95772 3.13034 5.24122 3.09547 5.61135L1.81258 19.2179C1.79369 19.4187 1.86424 19.6177 2.00705 19.7665C2.14986 19.9152 2.35177 19.9999 2.56332 19.9999H18.4349C18.4355 19.9999 18.4363 19.9999 18.4369 19.9999C18.8533 19.9999 19.1907 19.6785 19.1907 19.282C19.1906 19.2421 19.1871 19.2028 19.1805 19.1646ZM7.99073 3.8258C7.99073 2.50791 9.11633 1.43572 10.4999 1.43572C11.8836 1.43572 13.0093 2.50791 13.0093 3.8258V4.95772H7.99073V3.8258ZM3.38782 18.5643L4.53533 6.39343H6.48323V7.67716C6.48323 8.0736 6.82061 8.39501 7.23698 8.39501C7.65335 8.39501 7.99073 8.0736 7.99073 7.67716V6.39343H13.0093V7.67716C13.0093 8.0736 13.3467 8.39501 13.7631 8.39501C14.1794 8.39501 14.5168 8.0736 14.5168 7.67716V6.39343H16.4629L17.6104 18.5643H3.38782Z" fill="#313030"/>
</svg>
