<svg width="20" height="18" viewBox="0 0 20 18" fill="none" xmlns="http://www.w3.org/2000/svg">
<path d="M18.5408 1.90074C17.5543 0.781445 16.1859 0.165039 14.6875 0.165039C12.5802 0.165039 11.246 1.42363 10.4979 2.47949C10.3038 2.75348 10.1386 3.0282 10 3.28672C9.86137 3.0282 9.69629 2.75348 9.50215 2.47949C8.75402 1.42363 7.41984 0.165039 5.3125 0.165039C3.81414 0.165039 2.44566 0.781485 1.45918 1.90078C0.518242 2.96852 0 4.39852 0 5.92734C0 7.59152 0.649727 9.13937 2.04473 10.7984C3.29148 12.2812 5.08512 13.8097 7.16211 15.5796C7.93605 16.2391 8.73641 16.9211 9.58848 17.6666L9.61406 17.6891C9.72453 17.7858 9.86227 17.8341 10 17.8341C10.1377 17.8341 10.2755 17.7857 10.3859 17.6891L10.4115 17.6666C11.2636 16.9211 12.0639 16.2391 12.838 15.5795C14.9149 13.8097 16.7085 12.2813 17.9553 10.7984C19.3503 9.13933 20 7.59152 20 5.92734C20 4.39852 19.4818 2.96852 18.5408 1.90074ZM12.0779 14.6876C11.4107 15.2561 10.724 15.8412 10 16.4707C9.27602 15.8413 8.58934 15.2562 7.92203 14.6875C3.85723 11.2237 1.17188 8.93543 1.17188 5.92734C1.17188 4.68398 1.58613 3.52914 2.33836 2.67559C3.09922 1.81234 4.15543 1.33691 5.3125 1.33691C6.9191 1.33691 7.95766 2.32668 8.54594 3.15699C9.07363 3.90168 9.34898 4.65238 9.44289 4.94055C9.52145 5.18176 9.74633 5.345 10 5.345C10.2537 5.345 10.4786 5.18176 10.5571 4.94055C10.651 4.65238 10.9264 3.90168 11.4541 3.15695C12.0423 2.32668 13.0809 1.33691 14.6875 1.33691C15.8446 1.33691 16.9008 1.81234 17.6616 2.67559C18.4139 3.52914 18.8281 4.68398 18.8281 5.92734C18.8281 8.93543 16.1428 11.2237 12.0779 14.6876Z" fill="#313030"/>
</svg>
