<svg width="124" height="22" viewBox="0 0 124 22" fill="none" xmlns="http://www.w3.org/2000/svg">
<path d="M32.409 16.7786H35.519L37.2214 9.90484H37.2706L38.9074 16.7786H42.0012L44.6364 5.62109H41.952L40.4134 12.6444H40.3642L38.6291 5.62109H36.1411L34.3896 12.6444H34.324L32.8836 5.62109H29.79L32.409 16.7786Z" fill="#231F20"/>
<path d="M49.5635 8.85789H49.629L50.7912 12.5604H48.4013L49.5635 8.85789H49.5635ZM44.3418 16.7776H47.1245L47.8119 14.5694H51.4133L52.1497 16.7776H55.2925L51.4786 5.62012H48.1885L44.3418 16.7776Z" fill="#231F20"/>
<path d="M56.6182 16.7786H59.7119V5.62109H56.6182V16.7786Z" fill="#231F20"/>
<path d="M64.983 16.9614C67.8313 16.9614 69.3373 15.6664 69.3373 13.2754C69.3373 11.0173 68.2731 10.237 66.3253 9.85514L65.5069 9.70559C64.5412 9.5064 64.2136 9.27405 64.2136 8.69294C64.2136 8.0453 64.7212 7.72993 65.7196 7.72993C66.7306 7.73386 67.7331 7.91362 68.6824 8.26118V6.01979C68.0276 5.70421 67.1764 5.43848 65.4251 5.43848C62.6423 5.43848 61.3491 6.81656 61.3491 8.92529C61.3491 11.2664 62.4131 12.0467 64.1646 12.3787L64.983 12.5448C66.047 12.7606 66.3253 12.9598 66.3253 13.6075C66.3253 14.2716 65.8507 14.6535 64.6229 14.6535C63.3462 14.6535 62.3476 14.3878 61.3656 14.0226V16.2973C62.1512 16.7289 63.4445 16.9614 64.983 16.9614L64.983 16.9614Z" fill="#231F20"/>
<path d="M73.1836 16.7786H76.2772V7.86243H79.1582V5.62109H70.2861V7.86243H73.1836V16.7786Z" fill="#231F20"/>
<path fill-rule="evenodd" clip-rule="evenodd" d="M123.115 0.975586V20.6278H79.5317V0.975586" fill="#B82361"/>
<path fill-rule="evenodd" clip-rule="evenodd" d="M83.8757 17.0605C86.7567 17.0605 88.2798 15.7506 88.2798 13.3322C88.2798 11.0482 87.2037 10.2588 85.2334 9.8726L84.4055 9.72141C83.4287 9.51995 83.0975 9.28471 83.0975 8.69701C83.0975 8.04196 83.6108 7.72288 84.6208 7.72288C85.6433 7.72692 86.6573 7.90877 87.6175 8.26031V5.99317C86.9553 5.67409 86.0944 5.40527 84.3227 5.40527C81.508 5.40527 80.2002 6.79922 80.2002 8.93205C80.2002 11.3001 81.2763 12.0895 83.0478 12.4252L83.8757 12.5931C84.952 12.8115 85.2334 13.0131 85.2334 13.668C85.2334 14.3397 84.7532 14.7262 83.5115 14.7262C82.2202 14.7262 81.2102 14.4573 80.2167 14.0878V16.3887C81.0114 16.8254 82.3194 17.0605 83.8757 17.0605L83.8757 17.0605Z" fill="white"/>
<path fill-rule="evenodd" clip-rule="evenodd" d="M106.608 17.0605C109.456 17.0605 112.022 15.3979 112.022 11.384V11.0146C112.022 7.06783 109.655 5.40527 106.691 5.40527C103.843 5.40527 101.277 7.06783 101.277 11.0818V11.4511C101.277 15.3979 103.628 17.0605 106.608 17.0605V17.0605Z" fill="white"/>
<path fill-rule="evenodd" clip-rule="evenodd" d="M118.314 5.59082H113.694V16.8765H116.807V13.1313H118.396C121.194 13.1313 122.718 11.8214 122.718 9.26879C122.718 6.90072 121.277 5.59082 118.314 5.59082Z" fill="white"/>
<path fill-rule="evenodd" clip-rule="evenodd" d="M92.9985 5.59082H89.8857V16.8764H92.9985V12.2077H96.4919V16.8764H99.6213V5.59082H96.4919V9.94053H92.9985V5.59082Z" fill="white"/>
<path fill-rule="evenodd" clip-rule="evenodd" d="M106.674 14.7596C105.251 14.7596 104.539 13.8695 104.539 11.4343V10.8633C104.539 8.73045 105.251 7.70605 106.625 7.70605C108.082 7.70605 108.744 8.6633 108.744 11.0145V11.5855C108.744 13.735 108.032 14.7596 106.674 14.7596V14.7596Z" fill="#B82361"/>
<path fill-rule="evenodd" clip-rule="evenodd" d="M117.95 11.0988H116.808V7.75684H118.016C119.026 7.75684 119.49 8.17665 119.49 9.43628C119.49 10.5614 119.092 11.0988 117.95 11.0988V11.0988Z" fill="#B82361"/>
<path d="M6.42408 21.1107C6.29622 21.0781 6.17707 21.0179 6.07502 20.9342C5.97297 20.8505 5.89052 20.7455 5.83347 20.6265C5.73771 20.4404 5.72175 20.3445 5.74838 19.9562C5.7803 19.3976 5.87606 19.0944 6.27506 18.3336C6.86568 17.2003 7.73819 15.3967 7.94029 14.902C8.19036 14.2795 8.46706 13.1942 8.58407 12.3642C8.70108 11.5822 8.71704 9.74668 8.61599 8.93801C8.50427 8.04415 8.2542 6.99079 8.0148 6.41085C7.79136 5.87887 6.76991 3.77205 6.26978 2.82502C5.90269 2.12808 5.73242 1.58543 5.73242 1.12259C5.73242 0.55331 5.87077 0.292566 6.29103 0.10105C6.49322 0.00529033 6.75925 0 11.5315 0C14.83 0 16.6283 0.0212496 16.756 0.0531693C17.1869 0.175558 17.4849 0.595814 17.4902 1.08528C17.4902 1.61735 17.3306 2.05894 16.6124 3.48477C15.8941 4.9106 15.2876 6.23529 15.0589 6.88974C14.8832 7.37912 14.6385 8.61343 14.5694 9.33173C14.4363 10.6937 14.5321 12.3695 14.8141 13.5347C15.0322 14.4498 15.6387 15.8171 16.9528 18.3548C17.6604 19.7061 17.6604 20.5946 16.9688 21.0043C16.8917 21.0623 16.8077 21.1105 16.7187 21.1479L11.6645 21.1586C8.41381 21.1639 6.54639 21.1479 6.42409 21.1107L6.42408 21.1107ZM14.846 18.9081C14.7978 18.7062 14.7282 18.5101 14.6385 18.3229C13.5266 15.8969 12.8563 13.3006 12.7711 11.1192C12.686 8.80495 13.2978 6.07568 14.5375 3.27728C14.7076 2.89953 14.846 2.51649 14.8513 2.42602L14.8567 2.26104L11.6166 2.24508L8.37659 2.2345L8.40322 2.43669C8.48962 2.73588 8.5999 3.02766 8.733 3.30921C9.74925 5.61813 10.3238 7.81013 10.4675 9.94888C10.6323 12.3536 9.98865 15.2318 8.58407 18.3815C8.49372 18.5631 8.42926 18.7565 8.39255 18.956V19.0997L11.6272 19.089L14.8567 19.073L14.846 18.9081H14.846Z" fill="#231F20"/>
<path d="M16.7985 21.1107C16.9264 21.0781 17.0455 21.0179 17.1476 20.9342C17.2496 20.8505 17.3321 20.7455 17.3891 20.6265C17.4849 20.4404 17.5008 20.3445 17.4742 19.9562C17.4423 19.3976 17.3465 19.0944 16.9475 18.3336C16.3569 17.2003 15.4844 15.3967 15.2823 14.902C15.0322 14.2795 14.7555 13.1942 14.6385 12.3642C14.5215 11.5822 14.5055 9.74668 14.6066 8.93801C14.7183 8.04415 14.9684 6.99079 15.2078 6.41085C15.4312 5.87887 16.4528 3.77205 16.9528 2.82502C17.3199 2.12808 17.4902 1.58543 17.4902 1.12259C17.4902 0.55331 17.3518 0.292566 16.9316 0.10105C16.7294 0.00529033 16.4633 0 11.6911 0C8.39256 0 6.59426 0.0212496 6.46659 0.0531693C6.03566 0.175558 5.73771 0.595814 5.73242 1.08528C5.73242 1.61735 5.89202 2.05894 6.61032 3.48477C7.32852 4.9106 7.935 6.23529 8.16383 6.88974C8.33939 7.37912 8.58408 8.61343 8.65321 9.33173C8.78627 10.6937 8.69051 12.3695 8.40852 13.5347C8.19037 14.4498 7.58388 15.8171 6.26978 18.3548C5.56215 19.7061 5.56215 20.5946 6.25382 21.0043C6.33095 21.0623 6.41494 21.1105 6.50389 21.1479L11.5581 21.1586C14.8088 21.1639 16.6762 21.1479 16.7985 21.1107L16.7985 21.1107ZM8.3766 18.9081C8.42481 18.7062 8.49436 18.5101 8.58408 18.3229C9.696 15.8969 10.3663 13.3006 10.4515 11.1192C10.5366 8.80495 9.92482 6.07568 8.68513 3.27728C8.51495 2.89953 8.3766 2.51649 8.37131 2.42602L8.36593 2.26104L11.606 2.24508L14.846 2.2345L14.8194 2.43669C14.733 2.73588 14.6227 3.02766 14.4896 3.30921C13.4734 5.61813 12.8988 7.81013 12.7551 9.94888C12.5902 12.3536 13.2339 15.2318 14.6385 18.3815C14.7289 18.5631 14.7933 18.7565 14.83 18.956V19.0997L11.5953 19.089L8.36593 19.073L8.3766 18.9081H8.3766Z" fill="#231F20"/>
<path d="M6.42408 0.0810925C6.29622 0.113699 6.17707 0.173955 6.07502 0.257613C5.97297 0.34127 5.89052 0.446294 5.83347 0.565279C5.73771 0.751507 5.72175 0.847265 5.74838 1.2356C5.7803 1.7942 5.87606 2.09744 6.27506 2.85824C6.86568 3.9915 7.73819 5.79507 7.94029 6.28984C8.19036 6.91228 8.46706 7.99766 8.58407 8.82758C8.70108 9.60962 8.71704 11.4451 8.61599 12.2538C8.50427 13.1477 8.2542 14.201 8.0148 14.781C7.79136 15.3129 6.76991 17.4198 6.26978 18.3668C5.90269 19.0637 5.73242 19.6064 5.73242 20.0692C5.73242 20.6385 5.87077 20.8992 6.29103 21.0908C6.49322 21.1865 6.75925 21.1918 11.5315 21.1918C14.83 21.1918 16.6283 21.1706 16.756 21.1386C17.1869 21.0163 17.4849 20.596 17.4902 20.1065C17.4902 19.5745 17.3306 19.1329 16.6124 17.707C15.8941 16.2812 15.2876 14.9565 15.0589 14.3022C14.8832 13.8127 14.6385 12.5784 14.5694 11.8601C14.4363 10.4982 14.5321 8.82229 14.8141 7.65711C15.0322 6.7421 15.6387 5.37473 16.9528 2.83698C17.6604 1.48567 17.6604 0.597201 16.9688 0.187522C16.8917 0.129529 16.8077 0.0812846 16.7187 0.0438841L11.6645 0.0332142C8.41381 0.0279243 6.54639 0.0438844 6.42409 0.0810932L6.42408 0.0810925ZM14.846 2.28368C14.7978 2.48556 14.7282 2.68174 14.6385 2.8689C13.5266 5.29493 12.8563 7.89122 12.7711 10.0726C12.686 12.3869 13.2978 15.1161 14.5375 17.9145C14.7076 18.2923 14.846 18.6753 14.8513 18.7658L14.8567 18.9308L11.6166 18.9467L8.37659 18.9573L8.40322 18.7551C8.48962 18.4559 8.5999 18.1641 8.733 17.8826C9.74925 15.5737 10.3238 13.3817 10.4675 11.243C10.6323 8.83825 9.98865 5.95996 8.58407 2.81035C8.49372 2.62871 8.42926 2.43531 8.39255 2.23579V2.09215L11.6272 2.10282L14.8567 2.11879L14.846 2.28367L14.846 2.28368Z" fill="#231F20"/>
<path d="M16.7985 0.0810925C16.9264 0.113699 17.0455 0.173955 17.1476 0.257613C17.2496 0.34127 17.3321 0.446294 17.3891 0.565279C17.4849 0.751507 17.5008 0.847265 17.4742 1.2356C17.4423 1.7942 17.3465 2.09744 16.9475 2.85824C16.3569 3.9915 15.4844 5.79507 15.2823 6.28984C15.0322 6.91228 14.7555 7.99766 14.6385 8.82758C14.5215 9.60962 14.5055 11.4451 14.6066 12.2538C14.7183 13.1477 14.9684 14.201 15.2078 14.781C15.4312 15.3129 16.4528 17.4198 16.9528 18.3668C17.3199 19.0637 17.4902 19.6064 17.4902 20.0692C17.4902 20.6385 17.3518 20.8992 16.9316 21.0908C16.7294 21.1865 16.4633 21.1918 11.6911 21.1918C8.39256 21.1918 6.59426 21.1706 6.46659 21.1386C6.03566 21.0163 5.73771 20.596 5.73242 20.1065C5.73242 19.5745 5.89202 19.1329 6.61032 17.707C7.32852 16.2812 7.935 14.9565 8.16383 14.3022C8.33939 13.8127 8.58408 12.5784 8.65321 11.8601C8.78627 10.4982 8.69051 8.82229 8.40852 7.65711C8.19037 6.7421 7.58388 5.37473 6.26978 2.83698C5.56215 1.48567 5.56215 0.597201 6.25382 0.187522C6.33095 0.129548 6.41494 0.0813048 6.50389 0.0438841L11.5581 0.0332142C14.8088 0.0279243 16.6762 0.0438844 16.7985 0.0810932L16.7985 0.0810925ZM8.3766 2.28368C8.42481 2.48556 8.49436 2.68174 8.58408 2.8689C9.696 5.29493 10.3663 7.89122 10.4515 10.0726C10.5366 12.3869 9.92482 15.1161 8.68513 17.9145C8.51495 18.2923 8.3766 18.6753 8.37131 18.7658L8.36593 18.9308L11.606 18.9467L14.846 18.9573L14.8194 18.7551C14.733 18.4559 14.6227 18.1641 14.4896 17.8826C13.4734 15.5737 12.8988 13.3817 12.7551 11.243C12.5902 8.83825 13.2339 5.95996 14.6385 2.81035C14.7289 2.62871 14.7933 2.43531 14.83 2.23579V2.09215L11.5953 2.10282L8.36593 2.11879L8.3766 2.28367L8.3766 2.28368Z" fill="#231F20"/>
<path d="M1.40188 20.4833C1.00817 20.2865 0.837891 20.0364 0.837891 19.6587C0.837891 19.233 1.00287 19.0096 1.87001 18.2595C4.09393 16.3335 5.33882 14.4502 5.79637 12.3274C5.95068 11.6091 5.96135 10.2206 5.81762 9.49701C5.34949 7.08695 3.9875 4.87908 1.59869 2.64457C1.17305 2.24548 1.06671 2.02204 1.13584 1.63371C1.19968 1.25596 1.60936 0.958008 2.06153 0.958008C2.3116 0.963383 2.62022 1.16019 3.02451 1.57516C4.90789 3.52238 6.18479 5.74621 6.76464 8.09243C7.15307 9.66728 7.16365 11.7687 6.79128 13.2212C6.16345 15.6844 4.87597 17.9987 3.17353 19.7491C2.83837 20.0896 2.48187 20.4195 2.38082 20.478C2.13604 20.6216 1.68916 20.6269 1.40188 20.4833H1.40188Z" fill="#231F20"/>
<path d="M20.7351 20.4772C20.501 20.3336 19.6763 19.493 19.2188 18.9237C17.7823 17.1467 16.6491 14.7101 16.2554 12.5554C16.1065 11.736 16.0905 10.0442 16.2288 9.18768C16.6225 6.70311 17.7238 4.43669 19.5433 2.34045C20.1924 1.59033 20.7297 1.09028 20.9692 1.01047C21.3309 0.893366 21.831 1.03172 22.0385 1.31371C22.1139 1.44907 22.1558 1.60046 22.1609 1.7553C22.1821 2.14363 22.0757 2.30852 21.4266 2.88318C19.7454 4.37814 18.3196 6.44775 17.7025 8.29383C17.383 9.19977 17.2438 10.1595 17.2929 11.1189C17.3248 12.0765 17.3939 12.4915 17.6759 13.3321C18.2239 14.9867 19.4901 16.7318 21.2139 18.2108C22.113 18.9769 22.3205 19.2855 22.2619 19.7643C22.23 20.0782 22.0492 20.3122 21.7246 20.4612C21.3735 20.6261 20.9904 20.6315 20.7351 20.4772L20.7351 20.4772Z" fill="#231F20"/>
<path d="M22.1454 16.2911C21.8794 16.1262 21.1345 15.2962 20.7887 14.7801C20.1957 13.8996 19.7717 12.9163 19.5384 11.8806C19.4214 11.3273 19.4214 10.2208 19.5384 9.65677C19.8257 8.25219 20.5227 6.95942 21.6506 5.76771C22.1454 5.2516 22.2837 5.16113 22.6189 5.16113C22.97 5.16113 23.1562 5.3367 23.1562 5.66128C23.1562 5.90068 23.1456 5.91664 22.6455 6.40082C21.7996 7.21479 21.241 7.99154 20.8738 8.86405C20.5706 9.58226 20.4961 9.98664 20.4961 10.8539C20.4961 11.7743 20.5812 12.1839 20.9271 12.9074C21.2994 13.6896 21.6931 14.1684 22.7945 15.1686C23.2626 15.5942 23.284 15.9825 22.8689 16.2645C22.7634 16.3374 22.6392 16.3787 22.511 16.3834C22.3829 16.3881 22.256 16.3561 22.1454 16.2911Z" fill="#231F20"/>
<path d="M0.359007 16.0301C0.24219 15.9603 0.143705 15.8636 0.0717252 15.7481C-0.0133631 15.5885 -0.0187467 15.53 0.0345166 15.3438C0.0823988 15.1683 0.178159 15.0459 0.507939 14.7639C1.34324 14.035 1.88588 13.3594 2.24239 12.6092C2.54034 11.9708 2.65206 11.5186 2.68398 10.7471C2.75311 9.15103 2.08807 7.67732 0.651667 6.25688C0.034514 5.63972 0.013174 5.61309 0.013174 5.39494C0.013174 5.09699 0.194118 4.90017 0.502646 4.85758C0.805887 4.82038 0.960199 4.91613 1.53476 5.52262C2.66802 6.71434 3.39151 8.06036 3.63101 9.41706C3.72139 9.94374 3.73734 11.0132 3.65225 11.4707C3.49794 12.3538 2.92867 13.6998 2.36478 14.5192C2.0349 14.998 1.38583 15.7428 1.13576 15.9343C1.02973 16.0243 0.899708 16.0813 0.761697 16.0983C0.623686 16.1153 0.483712 16.0916 0.359007 16.0301V16.0301Z" fill="#231F20"/>
</svg>
